<svg width="305" height="193" xmlns="http://www.w3.org/2000/svg">
    <g featurekey="root" fill="#175a51"/>
    <g featurekey="symbol1" fill="#44a9ae" transform="matrix(1.0789592457408048,0,0,1.0789592457408048,100.20995003058704,4.874942553755456)">
        <g>
            <path d="M64.78,53.609c-8.914-5.143-15.084-13.197-16.029-14.474v-5.738c0.6,0.077,1.207,0.129,1.827,0.129
                c2.296,0,4.503-0.536,6.559-1.592l1.298-0.667L57.136,30.6c-4.327-2.223-7.015-6.615-7.015-11.462c0-4.848,2.688-9.24,
                7.015-11.462   l1.299-0.667l-1.299-0.667c-2.057-1.057-4.264-1.592-6.559-1.592c-7.934,0-14.389,6.455-14.389,14.389
                c0,6.787,4.729,12.478,11.062,13.984v6.013c-0.938,1.271-7.079,9.311-16.029,14.474c-9.938,5.733-15.197,12.004-15.631,18.64
                c-0.408,6.223,3.541,12.563,11.735,18.846l0.202,0.155h40.946l0.202-0.155c8.194-6.283,12.143-12.623,11.735-18.846
                C79.977,65.613,74.717,59.342,64.78,53.609z">
            </path>
        </g>
    </g>
    <g featurekey="text1" fill="#ffffff" transform="matrix(3.7925811614427762,0,0,3.7925811614427762,3.702231996190212,99.44604297464863)">
        <path d="M19.102 23.935547 q0.0390625 0.068359375 0.0390625 0.166015625 q0 0.146484375 -0.1025390625 0.25390625 t-0.26855 0.10742 q-0.107421875
            0 -0.1904296875 -0.048828125 t-0.13184 -0.14648 q-0.185546875 -0.361328125 -0.3271484375 -0.9033203125 t-0.24414 -1.2061 t-0.16602 -1.4307
            t-0.10254 -1.5869 q-0.732421875 0.09765625 -1.645507813 0.21484375 t-2.085 0.27344 q-0.8203125 0.1171875 -1.669921875 0.205078125 q-2.08984375
            2.275390625 -4.399414063 3.452148438 t-4.6338 1.1768 q-1.03515625 0 -1.791992188 -0.2001953125 t-1.25 -0.44922 t-0.74219 -0.46387
            t-0.26855 -0.23438 q-0.09765625 -0.09765625 -0.09765625 -0.25390625 t0.10742 -0.26367 t0.25391 -0.10742 q0.166015625 0 0.2734375 0.1171875
            q0.01953125 0.01953125 0.234375 0.2001953125 t0.63965 0.38574 t1.0791 0.37109 t1.5527 0.16602 q1.23046875 0 2.353515625 -0.33203125 t2.124
            -0.86426 t1.8652 -1.2158 t1.5674 -1.3867 q-0.693359375 0.05859375 -1.376953125 0.087890625 t-1.3477 0.029297 q-1.30859375 0 -2.490234375 -0.146484375
            t-2.0801 -0.49316 t-1.4307 -0.92285 t-0.53223 -1.4355 q0 -0.390625 0.1611328125 -0.78125 t0.38574 -0.70801 t0.46875 -0.51758 t0.41992 -0.2002 q0.13671875
            0 0.25390625 0.09765625 t0.11719 0.26367 q0 0.087890625 -0.0390625 0.1708984375 t-0.11719 0.13184 q-0.01953125 0.01953125 -0.166015625
            0.13671875 t-0.3125 0.31738 t-0.30273 0.47852 t-0.13672 0.60059 q0 0.556640625 0.3857421875 0.9814453125 t1.123 0.71289 t1.8115 0.43457
            t2.4512 0.14648 q0.791015625 0 1.669921875 -0.048828125 t1.8555 -0.14648 q0.46875 -0.517578125 0.830078125 -0.9765625 t0.61523 -0.82031
            q0.419921875 -0.595703125 0.87890625 -1.26953125 t0.91309 -1.3672 t0.88867 -1.3721 t0.81543 -1.2793 t0.68359 -1.0938 t0.49805 -0.81543
            q0.05859375 -0.263671875 0.17578125 -0.4833984375 t0.38086 -0.21973 q0.146484375 0 0.283203125 0.1220703125 t0.13672 0.30762 q0 0.13671875
            -0.09765625 0.29296875 t-0.18555 0.26367 q-0.029296875 0.185546875 -0.0927734375 0.791015625 t-0.12695 1.4795 t-0.10742 1.9238 t-0.043945
            2.124 l0 0.79102 t0.019531 0.79102 q1.46484375 -0.185546875 2.138671875 -0.2587890625 t0.71289 -0.073242 q0.126953125 0 0.2490234375 0.1025390625
             t0.12207 0.26855 q0 0.13671875 -0.0927734375 0.2392578125 t-0.23926 0.12207 q-0.17578125 0.01953125 -0.41015625 0.048828125 t-0.57617 0.068359
             t-0.80078 0.092773 t-1.0742 0.13184 q0.029296875 0.80078125 0.0927734375 1.538085938 t0.15625 1.3721 t0.21973 1.1426 t0.29297 0.83008 z M13.779
             18.896475 q1.15234375 -0.15625 2.094726563 -0.2783203125 t1.7041 -0.21973 q-0.009765625 -0.419921875 -0.0146484375 -0.83984375 t-0.0048828 -0.84961
             q0 -1.376953125 0.048828125 -2.631835938 t0.13672 -2.1826 q-0.390625 0.615234375 -0.8642578125 1.362304688 t-0.98145 1.5234 t-1.0254 1.5381 t-0.98633
             1.4258 q-0.234375 0.33203125 -0.478515625 0.64453125 t-0.48828 0.61523 q0.21484375 -0.01953125 0.4248046875 -0.048828125 t0.43457 -0.058594
             z M22.597678125 20.371075 q-0.05859375 0.15625 -0.1416015625 0.3515625 t-0.19043 0.41016 q-0.087890625 0.166015625 -0.1806640625 0.2587890625
             t-0.23926 0.092773 q-0.166015625 0 -0.263671875 -0.1025390625 t-0.097656 -0.23926 q0 -0.048828125 0.009765625 -0.0830078125 t0.048828
             -0.1123 q0.25390625 -0.48828125 0.3759765625 -0.8544921875 t0.2002 -0.7666 q-0.068359375 -0.224609375 -0.09765625 -0.380859375 t-0.029297
             -0.32227 q0 -0.322265625 0.13671875 -0.5224609375 t0.38086 -0.2002 q0.224609375 0 0.3564453125 0.1953125 t0.13184 0.47852 q0 0.15625
             -0.029296875 0.3125 t-0.078125 0.39063 q0.224609375 0.556640625 0.44921875 0.986328125 t0.40039 0.78613 t0.28809 0.66895 t0.1123 0.625
             q0 0.41015625 -0.166015625 0.78125 t-0.54688 0.625 q0.048828125 0.009765625 0.09765625 0.009765625 l0.097656 0 q0.556640625 0 1.025390625
             -0.25390625 t0.84473 -0.65918 t0.66895 -0.89844 t0.50781 -0.98145 q0.09765625 -0.224609375 0.2734375 -0.224609375 q0.166015625 0 0.2587890625
             0.1171875 t0.092773 0.25391 q0 0.078125 -0.029296875 0.146484375 q-0.107421875 0.263671875 -0.2783203125 0.6005859375 t-0.41016 0.69336 t-0.55176
             0.69824 t-0.69824 0.61035 t-0.84473 0.42969 t-1.0059 0.16113 q-0.654296875 0 -1.215820313 -0.2294921875 t-0.91309 -0.75684 q-0.05859375 -0.087890625
             -0.05859375 -0.185546875 q0 -0.146484375 0.1123046875 -0.2587890625 t0.25879 -0.1123 q0.15625 0 0.263671875 0.107421875 q0.009765625 0.01953125
             0.068359375 0.0634765625 t0.1416 0.097656 t0.19531 0.092773 t0.22949 0.039063 q0.234375 0 0.3955078125 -0.09765625 t0.25879 -0.23926 t0.1416 -0.30273
             t0.043945 -0.27832 q0 -0.244140625 -0.078125 -0.48828125 t-0.2002 -0.48828 t-0.26367 -0.50293 t-0.25879 -0.54199 z M29.052703125 22.783175
             q0.166015625 0.37109375 0.546875 0.5908203125 t0.85938 0.21973 q0.146484375 0 0.478515625 -0.0439453125 t0.7666 -0.29297 t0.92285 -0.78613 t0.94727
             -1.5137 q0.048828125 -0.107421875 0.13671875 -0.1611328125 t0.19531 -0.053711 q0.166015625 0 0.2685546875 0.1171875 t0.10254 0.25391 q0 0.05859375
             -0.0390625 0.15625 q-0.341796875 0.712890625 -0.76171875 1.274414063 t-0.9082 0.95703 t-1.0205 0.60547 t-1.0889 0.20996 q-0.439453125 0 -0.8251953125
             -0.13671875 t-0.66406 -0.36621 t-0.43945 -0.51758 t-0.16113 -0.59082 q0 -0.0390625 0.009765625 -0.107421875 t0.053711 -0.15137 t0.12695 -0.15625
             t0.22949 -0.12207 q0.400390625 -0.1171875 0.7373046875 -0.2880859375 t0.58105 -0.38574 t0.38086 -0.47363 t0.13672 -0.56152 q0 -0.263671875 -0.17578125
             -0.4296875 t-0.42969 -0.16602 q-0.263671875 0 -0.517578125 0.1806640625 t-0.49316 0.47852 t-0.4541 0.68359 t-0.39551 0.80566 t-0.31738 0.83496 t-0.22461
             0.7666 q-0.029296875 0.107421875 -0.0634765625 0.234375 t-0.10254 0.23926 t-0.16602 0.18555 t-0.25391 0.073242 q-0.146484375 0 -0.283203125
             -0.1220703125 t-0.13672 -0.41504 q0 -0.05859375 0.0048828125 -0.44921875 t0.014648 -1.0205 t0.024414 -1.4453 t0.024414 -1.7285 t0.029297 -1.8799
             t0.029297 -1.8848 t0.024414 -1.7432 t0.024414 -1.4648 t0.014648 -1.0449 t0.0048828 -0.4834 q0 -0.15625 0.1171875 -0.2587890625 t0.25391 -0.10254
             q0.15625 0 0.263671875 0.1025390625 t0.10742 0.26855 q0 0.01953125 -0.0048828125 0.3857421875 t-0.014648 0.98145 t-0.024414 1.4355 t-0.029297
             1.7432 t-0.029297 1.8994 t-0.029297 1.9043 t-0.024414 1.7676 t-0.019531 1.4844 q0.15625 -0.498046875 0.400390625 -1.049804688 t0.57617 -1.0205
             t0.74707 -0.77148 t0.92285 -0.30273 q0.283203125 0 0.52734375 0.1025390625 t0.4248 0.2832 t0.2832 0.4248 t0.10254 0.52734 q0 0.439453125 -0.1953125
             0.8056640625 t-0.51758 0.6543 t-0.7373 0.50293 t-0.85449 0.35156 z M45.605125 8.847375 q0.234375 0 0.41015625 0.205078125 t0.17578 0.50781 q0
             0.41015625 -0.3271484375 0.9130859375 t-0.94238 1.0498 q-0.107421875 0.546875 -0.185546875 1.245117188 t-0.078125 1.5869 q0 1.3671875 -0.087890625
             2.666015625 t-0.33203 2.4414 t-0.68848 2.0996 t-1.1621 1.6455 t-1.7432 1.0742 t-2.4316 0.38574 q-1.171875 0 -2.08984375 -0.2734375 t-1.5576 -0.75684
             t-0.97656 -1.1328 t-0.33691 -1.4111 t0.32227 -1.4111 t0.86914 -1.1328 t1.2744 -0.75684 t1.5479 -0.27344 q0.126953125 0 0.2587890625 0.0048828125
             t0.23926 0.039063 t0.18066 0.11719 t0.073242 0.22949 q0 0.15625 -0.1123046875 0.2587890625 t-0.25879 0.10254 q-0.09765625 0 -0.1904296875 -0.0048828125
             t-0.19043 -0.0048828 q-0.6640625 0 -1.259765625 0.21484375 t-1.0449 0.5957 t-0.71289 0.89844 t-0.26367 1.123 q0 0.537109375 0.1953125 0.95703125 t0.52734
             0.7373 t0.7666 0.54199 t0.91309 0.36133 t0.97168 0.2002 t0.94238 0.063477 q1.240234375 0 2.138671875 -0.3515625 t1.5186 -0.98633 t1.001 -1.5186
             t0.5957 -1.9531 t0.28809 -2.2852 t0.083008 -2.5146 q0.009765625 -0.625 0.048828125 -1.225585938 t0.10742 -1.0889 q-0.390625 0.205078125 -0.859375
             0.400390625 t-0.94238 0.40527 t-0.92285 0.44922 t-0.7959 0.52734 t-0.55664 0.64453 t-0.20996 0.7959 q0 0.400390625 0.13671875 0.6982421875 t0.3418
             0.50293 t0.44922 0.33691 t0.4541 0.20508 t0.36133 0.10742 t0.1709 0.03418 q0.166015625 0.048828125 0.224609375 0.1318359375 t0.058594 0.2002 q0
             0.166015625 -0.09765625 0.2685546875 t-0.24414 0.10254 q-0.01953125 0 -0.0830078125 -0.0048828125 t-0.083008 -0.014648 q-0.322265625 -0.068359375
             -0.7421875 -0.2392578125 t-0.7959 -0.47852 t-0.63477 -0.77637 t-0.25879 -1.1426 q0 -0.595703125 0.29296875 -1.0546875 t0.7666 -0.82031 t1.0547
             -0.64453 t1.1572 -0.53223 t1.084 -0.4834 t0.83008 -0.50781 q0.2734375 -1.181640625 0.634765625 -1.73828125 t0.73242 -0.55664 z M48.5254375
             23.115235 q0.146484375 -0.29296875 0.3759765625 -0.7275390625 t0.47852 -0.87402 t0.48828 -0.83008 t0.40527 -0.5957 q0.283203125 -0.341796875
             0.5859375 -0.48828125 t0.55664 -0.14648 t0.43457 0.10742 t0.29785 0.28809 t0.17578 0.41992 t0.058594 0.5127 q0 0.15625 -0.0146484375 0.41015625
             t-0.029297 0.54688 t-0.029297 0.60547 t-0.024414 0.58594 q0.146484375 -0.29296875 0.33203125 -0.6494140625 t0.37598 -0.70801 t0.36621 -0.65918
             t0.32227 -0.50293 q0.419921875 -0.576171875 0.7861328125 -0.771484375 t0.64941 -0.19531 q0.33203125 0 0.546875 0.1220703125 t0.33691 0.3125 t0.1709
             0.4248 t0.048828 0.44922 q0 0.33203125 -0.048828125 0.693359375 t-0.048828 0.85938 q0 0.205078125 0.01953125 0.41015625 t0.083008 0.36133 t0.2002
             0.25391 t0.37109 0.097656 q0.25390625 0 0.498046875 -0.1318359375 t0.46875 -0.34668 t0.4248 -0.48828 t0.36621 -0.54688 t0.29297 -0.52246 t0.20508
             -0.4248 q0.048828125 -0.107421875 0.13671875 -0.166015625 t0.19531 -0.058594 q0.166015625 0 0.2685546875 0.1220703125 t0.10254 0.25879 q0 0.068359375
             -0.029296875 0.13671875 q-0.0390625 0.078125 -0.15625 0.3271484375 t-0.3125 0.56641 t-0.4541 0.66895 t-0.57129 0.64941 t-0.67383 0.48828
             t-0.76172 0.19043 q-0.4296875 0 -0.6982421875 -0.1513671875 t-0.42969 -0.40527 t-0.21973 -0.58594 t-0.058594 -0.69336 q0 -0.478515625 0.048828125
             -0.8837890625 t0.048828 -0.62988 q0 -0.244140625 -0.0439453125 -0.37109375 t-0.10742 -0.18066 t-0.12207 -0.058594 t-0.087891 -0.0048828 q-0.234375
             0 -0.4931640625 0.2587890625 t-0.53223 0.68848 t-0.56152 0.97656 t-0.58105 1.1133 q-0.166015625 0.3125 -0.2783203125 0.517578125 t-0.21484 0.32227
             t-0.2002 0.16602 t-0.21484 0.048828 q-0.25390625 0 -0.3857421875 -0.17578125 t-0.13184 -0.45898 q0 -0.146484375 0.009765625 -0.390625 t0.019531
             -0.53711 t0.029297 -0.60547 t0.029297 -0.60059 t0.019531 -0.5127 t0.0097656 -0.3418 q0 -0.25390625 -0.087890625 -0.3662109375 t-0.20508 -0.1123
             q-0.107421875 0 -0.2392578125 0.078125 t-0.30762 0.30273 q-0.13671875 0.17578125 -0.3466796875 0.5126953125 t-0.44434 0.74707 t-0.46387 0.83984
             t-0.39551 0.77148 q-0.205078125 0.41015625 -0.41015625 0.5615234375 t-0.40039 0.15137 q-0.283203125 0 -0.419921875 -0.1708984375 t-0.13672 -0.4541
             q0 -0.029296875 0.0146484375 -0.3515625 t0.03418 -0.78613 t0.043945 -0.99121 t0.043945 -0.98633 q0.009765625 -0.244140625 -0.01953125 -0.44921875
             t-0.078125 -0.24414 q-0.078125 0.01953125 -0.3076171875 0.361328125 t-0.58105 1.1914 q-0.048828125 0.107421875 -0.146484375 0.166015625 t-0.20508
             0.058594 q-0.166015625 0 -0.263671875 -0.1123046875 t-0.097656 -0.25879 q0 -0.068359375 0.029296875 -0.146484375 q0.439453125 -1.044921875 0.83984375
             -1.538085938 t0.78125 -0.49316 q0.224609375 0 0.3759765625 0.1025390625 t0.23926 0.26367 t0.12695 0.36621 t0.039063 0.40039 q0 0.869140625
             -0.0439453125 1.591796875 t-0.092773 1.4551 z M66.601540625 21.259775 q-0.0390625 0.078125 -0.1611328125 0.3271484375 t-0.3125 0.57129 t-0.44434
             0.67383 t-0.56641 0.64453 t-0.67383 0.4834 t-0.76172 0.19043 q-0.56640625 0 -0.9521484375 -0.361328125 t-0.56152 -0.9082 q-0.33203125 0.556640625
             -0.791015625 0.8837890625 t-0.91797 0.32715 q-0.361328125 0 -0.654296875 -0.1318359375 t-0.49805 -0.37109 t-0.31738 -0.56152 t-0.1123 -0.70313 q0
             -0.76171875 0.2587890625 -1.342773438 t0.65918 -0.97168 t0.88379 -0.58594 t0.93262 -0.19531 q0.302734375 0 0.556640625 0.0830078125 t0.43457
             0.18066 t0.27832 0.18066 t0.10742 0.092773 q0.107421875 0.126953125 0.107421875 0.263671875 q0 0.146484375 -0.107421875 0.2587890625 t-0.25391
             0.1123 q-0.15625 0 -0.263671875 -0.107421875 q-0.01953125 -0.01953125 -0.087890625 -0.0732421875 t-0.18555 -0.1123 t-0.27832 -0.10254 t-0.36621
             -0.043945 q-0.302734375 0 -0.64453125 0.13671875 t-0.625 0.4248 t-0.47363 0.72266 t-0.19043 1.0303 q0 0.185546875 0.0390625 0.3759765625 t0.13672
             0.34668 t0.26367 0.25391 t0.41016 0.097656 q0.17578125 0 0.4052734375 -0.1171875 t0.43945 -0.36133 t0.38086 -0.61523 t0.23926 -0.87891 q0.01953125
             -0.13671875 0.126953125 -0.2294921875 t0.25391 -0.092773 q0.13671875 0 0.2392578125 0.107421875 t0.1123 0.24414 q0.009765625 0.185546875 0.0390625
             0.5224609375 t0.13184 0.66895 t0.30762 0.57617 t0.56641 0.24414 q0.234375 0 0.4638671875 -0.126953125 t0.44922 -0.33691 t0.41992 -0.47852 t0.36621
             -0.54199 t0.29297 -0.52734 t0.21484 -0.43945 q0.048828125 -0.107421875 0.1416015625 -0.166015625 t0.2002 -0.058594 q0.166015625 0 0.2685546875
             0.1220703125 t0.10254 0.25879 q0 0.068359375 -0.029296875 0.13671875 z M68.183640625 23.115235 q0.146484375 -0.29296875 0.3759765625 -0.7275390625
             t0.47852 -0.87402 t0.48828 -0.83008 t0.40527 -0.5957 q0.283203125 -0.341796875 0.5859375 -0.48828125 t0.55664 -0.14648 t0.43457 0.10742 t0.29785 0.28809
             t0.17578 0.41992 t0.058594 0.5127 q0 0.15625 -0.0146484375 0.41015625 t-0.029297 0.54688 t-0.029297 0.60547 t-0.024414 0.58594 q0.146484375 -0.29296875
             0.33203125 -0.6494140625 t0.37598 -0.70801 t0.36621 -0.65918 t0.32227 -0.50293 q0.419921875 -0.576171875 0.7861328125 -0.771484375 t0.64941 -0.19531
             q0.33203125 0 0.546875 0.1220703125 t0.33691 0.3125 t0.1709 0.4248 t0.048828 0.44922 q0 0.33203125 -0.048828125 0.693359375 t-0.048828 0.85938 q0
             0.205078125 0.01953125 0.41015625 t0.083008 0.36133 t0.2002 0.25391 t0.37109 0.097656 q0.25390625 0 0.498046875 -0.1318359375 t0.46875 -0.34668
             t0.4248 -0.48828 t0.36621 -0.54688 t0.29297 -0.52246 t0.20508 -0.4248 q0.048828125 -0.107421875 0.13671875 -0.166015625 t0.19531
             -0.058594 q0.166015625 0 0.2685546875 0.1220703125 t0.10254 0.25879 q0 0.068359375 -0.029296875 0.13671875 q-0.0390625 0.078125 -0.15625
             0.3271484375 t-0.3125 0.56641 t-0.4541 0.66895 t-0.57129 0.64941 t-0.67383 0.48828 t-0.76172 0.19043 q-0.4296875 0 -0.6982421875 -0.1513671875 t-0.42969
             -0.40527 t-0.21973 -0.58594 t-0.058594 -0.69336 q0 -0.478515625 0.048828125 -0.8837890625 t0.048828 -0.62988 q0 -0.244140625 -0.0439453125 -0.37109375
             t-0.10742 -0.18066 t-0.12207 -0.058594 t-0.087891 -0.0048828 q-0.234375 0 -0.4931640625 0.2587890625 t-0.53223 0.68848 t-0.56152 0.97656 t-0.58105
             1.1133 q-0.166015625 0.3125 -0.2783203125 0.517578125 t-0.21484 0.32227 t-0.2002 0.16602 t-0.21484 0.048828 q-0.25390625 0 -0.3857421875
             -0.17578125 t-0.13184 -0.45898 q0 -0.146484375 0.009765625 -0.390625 t0.019531 -0.53711 t0.029297 -0.60547 t0.029297 -0.60059 t0.019531
             -0.5127 t0.0097656 -0.3418 q0 -0.25390625 -0.087890625 -0.3662109375 t-0.20508 -0.1123 q-0.107421875 0 -0.2392578125 0.078125 t-0.30762
             0.30273 q-0.13671875 0.17578125 -0.3466796875 0.5126953125 t-0.44434 0.74707 t-0.46387 0.83984 t-0.39551 0.77148 q-0.205078125 0.41015625
             -0.41015625 0.5615234375 t-0.40039 0.15137 q-0.283203125 0 -0.419921875 -0.1708984375 t-0.13672 -0.4541 q0 -0.029296875 0.0146484375
             -0.3515625 t0.03418 -0.78613 t0.043945 -0.99121 t0.043945 -0.98633 q0.009765625 -0.244140625 -0.01953125 -0.44921875 t-0.078125 -0.24414
             q-0.078125 0.01953125 -0.3076171875 0.361328125 t-0.58105 1.1914 q-0.048828125 0.107421875 -0.146484375 0.166015625 t-0.20508 0.058594
             q-0.166015625 0 -0.263671875 -0.1123046875 t-0.097656 -0.25879 q0 -0.068359375 0.029296875 -0.146484375 q0.439453125 -1.044921875
             0.83984375 -1.538085938 t0.78125 -0.49316 q0.224609375 0 0.3759765625 0.1025390625 t0.23926 0.26367 t0.12695 0.36621 t0.039063 0.40039
             q0 0.869140625 -0.0439453125 1.591796875 t-0.092773 1.4551 z">
        </path>
    </g>
</svg>